# xmcd CD database file
#
# Track frame offsets:
#	150
#	38085
#	49822
#	61165
#	98860
#	107800
#	136466
#	152223
#	168425
#	211925
#	218865
#
# Disc length: 3289 seconds
#
# Revision: 0
# Processed by: cddbd v1.4PL0 Copyright (c) Steve Scherf et al.
# Submitted via: CDex 1.51
#
DISCID=9a0cd70b
DTITLE=Sarah Vaughan - Recital a Paris, 1985
DYEAR=1900
DGENRE=Jazz
TTITLE0=(Instrumental) High Fly
TTITLE1=Summertime
TTITLE2=Just Friends
TTITLE3=Waves
TTITLE4=On a Clear Day
TTITLE5=If You Could See Me Now
TTITLE6=I've Got The World On A String
TTITLE7=Fascinating Rhythm
TTITLE8=But Not For Me - Our Love Is Here To Stay - Embraceable You - Someone To Watch Over Me
TTITLE9=There Will Never Be Another You
TTITLE10=Misty
EXTD=
EXTT0=
EXTT1=
EXTT2=
EXTT3=
EXTT4=
EXTT5=
EXTT6=
EXTT7=
EXTT8=
EXTT9=
EXTT10=
PLAYORDER=
